<svg xmlns="http://www.w3.org/2000/svg" viewBox="0 0 64 64" role="img" aria-labelledby="title">
  <title id="title">RepOS mark</title>
  <defs>
    <linearGradient id="reposField" x1="9" x2="56" y1="8" y2="58" gradientUnits="userSpaceOnUse">
      <stop offset="0" stop-color="#c8b7ff"/>
      <stop offset="0.48" stop-color="#7c5cff"/>
      <stop offset="1" stop-color="#4321d6"/>
    </linearGradient>
    <linearGradient id="reposAccent" x1="15" x2="44" y1="20" y2="42" gradientUnits="userSpaceOnUse">
      <stop offset="0" stop-color="#ffffff"/>
      <stop offset="1" stop-color="#dff7ff"/>
    </linearGradient>
    <linearGradient id="reposCyan" x1="38" x2="50" y1="22" y2="35" gradientUnits="userSpaceOnUse">
      <stop offset="0" stop-color="#67e8f9"/>
      <stop offset="1" stop-color="#22d3ee"/>
    </linearGradient>
    <filter id="reposShadow" x="3" y="4" width="58" height="58" color-interpolation-filters="sRGB" filterUnits="userSpaceOnUse">
      <feDropShadow dx="0" dy="5" flood-color="#1e1b4b" flood-opacity=".28" stdDeviation="4"/>
    </filter>
  </defs>
  <g filter="url(#reposShadow)">
    <path fill="url(#reposField)" d="M12 10h40a8 8 0 0 1 8 8v25a8 8 0 0 1-8 8H37.5L28 59v-8H12a8 8 0 0 1-8-8V18a8 8 0 0 1 8-8Z"/>
    <path fill="#090724" opacity=".18" d="M52 10a8 8 0 0 1 8 8v25a8 8 0 0 1-8 8H37.5L28 59v-8h-.2L53 25.8A17.8 17.8 0 0 0 52 10Z"/>
    <path fill="url(#reposAccent)" d="M15 22.5a3.5 3.5 0 0 1 3.5-3.5h19a3.5 3.5 0 1 1 0 7h-19a3.5 3.5 0 0 1-3.5-3.5Zm0 10a3.5 3.5 0 0 1 3.5-3.5h14a3.5 3.5 0 1 1 0 7h-14a3.5 3.5 0 0 1-3.5-3.5Zm0 10a3.5 3.5 0 0 1 3.5-3.5h21a3.5 3.5 0 1 1 0 7h-21a3.5 3.5 0 0 1-3.5-3.5Z"/>
    <circle cx="43" cy="22.5" r="3.5" fill="url(#reposCyan)"/>
    <circle cx="51" cy="22.5" r="3.5" fill="url(#reposCyan)" opacity=".78"/>
  </g>
</svg>
